<?xml version="1.0" encoding="utf-8" ?>
<!-- Generator: Adobe Illustrator 16.0.0, SVG Export Plug-In . SVG Version: 6.00 Build 0)  -->
<!DOCTYPE svg PUBLIC "-//W3C//DTD SVG 1.1//EN" "http://www.w3.org/Graphics/SVG/1.1/DTD/svg11.dtd">
<svg
    version="1.1"
    id="Layer_1"
    xmlns="http://www.w3.org/2000/svg"
    xmlns:xlink="http://www.w3.org/1999/xlink"
    x="0px"
    y="0px"
    width="90px"
    height="60"
    viewBox="90 0 90 205.49"
    enable-background="new 90 0 90 205.49"
    xml:space="preserve"
    role="img"
    aria-labelledby="logoTitle logoDesc"
>
    <title id="logoTitle">ElectionGuard Logo</title>
    <desc id="logoDesc">The ElectionGuard logo</desc>
    <g>
        <g>
            <g id="ElectionGuard_Icon_1">
                <g>
                    <path
                        fill="#008575"
                        d="M50.38,102.676c0.654-2.725,1.679-3.67,4.542-3.604c8.801,0.203,17.609,0.073,26.6,0.073
					c0,7.805,0,15.254,0,23.249c-1.839,0-3.598-0.029-5.364,0c-10.16,0.182-17.726,7.762-17.697,17.719
					c0.022,9.462,7.667,17.108,17.486,17.115c42.61,0.072,85.221,0.072,127.838,0c9.957-0.021,17.457-7.776,17.377-17.566
					c-0.073-9.666-7.828-17.195-17.762-17.261c-1.672,0-3.343,0-5.233,0c0-7.754,0-15.211,0-22.893
					c0.545-0.109,1.221-0.349,1.89-0.349c8.474-0.021,16.948,0.007,25.422-0.043c1.751-0.015,2.9,0.218,3.401,2.231
					c6.424,26.033,12.915,52.037,19.39,78.055c0.051,0.226-0.029,0.473-0.065,0.938c-72.19,0-144.394,0-217.078,0
					c2.943-11.934,5.792-23.533,8.677-35.125C43.337,131.035,46.979,116.877,50.38,102.676z"
                    />
                    <path
                        fill="#FFFFFF"
                        d="M186.024,145.468c-30.779,0-61.463,0-92.416,0c0-38.534,0-77.052,0-115.92c30.938,0,61.536,0,92.416,0
					C186.024,68.198,186.024,106.717,186.024,145.468z"
                    />
                    <path
                        fill="#274B47"
                        d="M186.024,29.548c-30.88,0-61.478,0-92.416,0c0,38.868,0,77.386,0,115.92c30.953,0,61.637,0,92.416,0
					C186.024,106.717,186.024,68.198,186.024,29.548z M54.922,99.071c-2.864-0.065-3.888,0.879-4.542,3.604
					c-3.401,14.201-7.042,28.359-10.575,42.538c-2.885,11.592-5.734,23.191-8.677,35.125c72.684,0,144.888,0,217.078,0
					c0.036-0.465,0.116-0.712,0.065-0.938c-6.476-26.019-12.966-52.022-19.39-78.055c-0.501-2.013-1.65-2.246-3.401-2.231
					c-8.474,0.051-16.948,0.022-25.422,0.043c-0.668,0-1.345,0.24-1.89,0.349c0,7.682,0,15.139,0,22.893c1.89,0,3.561,0,5.233,0
					c9.935,0.065,17.689,7.595,17.762,17.261c0.08,9.79-7.42,17.545-17.377,17.566c-42.618,0.072-85.228,0.072-127.838,0
					c-9.819-0.007-17.464-7.653-17.486-17.115c-0.029-9.957,7.537-17.537,17.697-17.719c1.766-0.029,3.525,0,5.364,0
					c0-7.995,0-15.444,0-23.249C72.532,99.144,63.723,99.274,54.922,99.071z M25.757,192.163c-6.904,0-8.976-2.492-7.304-9.28
					c6.606-26.738,13.321-53.439,20-80.156c0.785-3.161,1.577-6.323,2.376-9.491c1.076-4.245,2.784-5.662,7.123-5.676
					c10.654-0.029,21.309-0.015,31.963-0.029c0.458,0,0.923-0.124,1.788-0.24c0-20.066,0-39.797,0-59.522
					c0-0.974-0.015-1.94,0.007-2.907c0.08-5.095,1.955-7.028,7.064-7.035c19.128-0.036,38.264-0.029,57.393-0.029
					c14.644,0,29.296-0.007,43.947,0.021c6.09,0.007,7.82,1.73,7.82,7.748c0.015,19.128,0.007,38.257,0.007,57.378
					c0,1.33,0,2.66,0,4.571c1.453,0,2.725,0,3.997,0c9.928,0.015,19.855,0,29.783,0.043c4.201,0.022,6.054,1.403,7.035,5.334
					c7.522,30.118,15.044,60.227,22.486,90.359c1.555,6.301-0.589,8.91-7.021,8.91c-54.239,0.021-108.478,0.021-162.723,0.021
					C69.588,192.184,47.676,192.184,25.757,192.163z"
                    />
                </g>
                <g />
            </g>
        </g>
        <g>
            <g id="ElectionGuard_Icon_2">
                <g>
                    <path
                        fill="#FFFFFF"
                        d="M157.045,67.984c0.734-0.736,1.479-1.544,2.631-1.395c0.628,0.083,1.344,0.278,1.81,0.672
					c1.28,1.074,2.478,2.248,3.65,3.44c1.418,1.443,1.327,3.301-0.194,4.83c-5.963,5.995-11.928,11.983-17.901,17.976
					c-4.404,4.413-8.819,8.817-13.227,13.227c-1.766,1.768-3.53,1.76-5.301-0.009c-4.818-4.822-9.637-9.637-14.454-14.458
					c-1.968-1.968-1.945-3.57,0.077-5.533c0.849-0.823,1.72-1.634,2.573-2.454c1.696-1.636,3.146-1.649,4.804,0
					c2.953,2.941,5.891,5.894,8.821,8.857c0.234,0.232,0.363,0.566,0.692,1.086c0.443-0.593,0.63-0.92,0.883-1.172
					C140.284,84.691,148.663,76.334,157.045,67.984z"
                    />
                    <path
                        fill="#274B47"
                        d="M159.677,66.589c-1.152-0.149-1.897,0.659-2.631,1.395c-8.382,8.35-16.762,16.707-25.135,25.068
					c-0.253,0.252-0.44,0.579-0.883,1.172c-0.329-0.52-0.458-0.854-0.692-1.086c-2.93-2.963-5.868-5.916-8.821-8.857
					c-1.658-1.649-3.107-1.636-4.804,0c-0.853,0.82-1.724,1.63-2.573,2.454c-2.021,1.963-2.045,3.564-0.077,5.533
					c4.816,4.82,9.635,9.635,14.454,14.458c1.771,1.769,3.535,1.776,5.301,0.009c4.408-4.409,8.823-8.813,13.227-13.227
					c5.973-5.993,11.938-11.981,17.901-17.976c1.521-1.528,1.612-3.387,0.194-4.83c-1.172-1.192-2.37-2.366-3.65-3.44
					C161.021,66.867,160.305,66.672,159.677,66.589z M139.3,125.711c-21.407-0.206-38.353-17.172-38.342-38.453
					c0.013-21.349,17.136-38.424,38.49-38.362c21.323,0.062,38.34,17.102,38.287,38.47
					C177.686,108.788,160.615,125.558,139.3,125.711z"
                    />
                </g>
                <g />
            </g>
        </g>
    </g>
</svg>
